<svg width="58" height="28" viewBox="0 0 58 28" fill="none" xmlns="http://www.w3.org/2000/svg">
<g clip-path="url(#clip0_59_5094)">
<path d="M1.79347 23.698C1.75071 23.698 1.65478 23.637 1.65478 23.5496V10.3282C1.63976 9.8532 1.38435 9.26556 0.751026 9.01831C0.553401 8.93436 0.261009 8.92631 0.0992111 8.90101C0.0633844 8.89526 0.000976562 8.85961 0.000976562 8.77681V7.27607C0.000976562 7.19672 0.0656958 7.13232 0.145439 7.13232H5.60266C5.6824 7.13232 5.74712 7.19672 5.74712 7.27607V20.5021C5.74712 21.084 6.14237 21.6636 6.74565 21.8442C6.88895 21.8867 7.16054 21.9051 7.29923 21.9281C7.36626 21.9396 7.40324 21.9879 7.40324 22.0535V23.5519C7.40324 23.6313 7.33852 23.6957 7.25878 23.6957L1.79578 23.6991L1.79347 23.698Z" fill="black"/>
<path d="M57.9962 26.566V26.3556C57.9962 26.2889 57.9593 26.2406 57.8922 26.2302C57.7535 26.2072 57.482 26.1888 57.3387 26.1463C56.8151 25.991 56.4488 25.5322 56.3598 25.0342C56.3482 24.9629 56.339 24.856 56.339 24.8031V14.644C56.354 14.1691 56.614 13.5814 57.2474 13.3342C57.445 13.2502 57.7374 13.2422 57.8992 13.2169C57.935 13.2111 57.9974 13.1755 57.9974 13.0927V11.592C57.9974 11.5322 57.9708 11.4482 57.8599 11.4482H57.1422H52.4292C52.4292 11.4482 52.4292 11.4482 52.4281 11.4482H52.4269C52.4269 11.4482 52.4223 11.4494 52.42 11.4494C52.3391 11.454 52.2801 11.5184 52.2801 11.6023V12.1635C52.2801 12.2808 52.1449 12.3487 52.049 12.2785L51.8618 12.1382C50.9407 11.3884 50.0681 10.9537 48.4837 10.9537C45.309 10.9537 42.9167 13.8379 42.9167 17.5098C42.9167 18.0641 42.9721 18.6035 43.0808 19.1233C43.112 19.2774 43.1039 19.4384 43.0438 19.5844C42.7641 20.2629 42.2799 20.7723 41.7055 20.7723C40.7416 20.7723 40.262 19.7995 40.262 18.1377L40.2551 11.5448C40.2551 11.4781 40.2008 11.4229 40.1326 11.4229H36.2691C36.202 11.4229 36.1466 11.477 36.1466 11.5448V15.8009C36.1466 15.8009 36.1477 15.8814 36.1385 15.9389C36.1327 15.9723 36.1258 16.0091 36.1165 16.0413C34.7343 20.425 32.3328 20.7896 31.2187 20.7896C30.0329 20.7896 27.9665 20.2077 27.6279 17.005C27.2893 13.8022 28.9778 12.4556 29.7232 12.4556C31.414 12.4556 31.8023 15.035 31.8751 15.8159C31.8878 15.9205 31.9872 15.9608 32.0565 15.9608H33.47C33.5798 15.9608 33.6595 15.8929 33.6595 15.7791V12.2636C33.6595 12.2141 33.6387 12.1405 33.5786 12.098C33.4145 11.983 33.2631 11.8772 33.0216 11.738C32.4726 11.4206 31.555 10.9514 29.5579 10.9514C24.7802 10.9514 23.2559 14.2933 23.2559 16.9693C23.2559 17.7237 23.3252 18.4609 23.4755 19.1566C23.509 19.3142 23.502 19.4786 23.4408 19.6281C23.1623 20.3031 22.6896 20.7551 22.1198 20.7861C21.0901 20.8436 20.7041 19.7132 20.6683 18.1331V11.5402C20.6683 11.4735 20.6139 11.4183 20.5458 11.4183H16.6823C16.6152 11.4183 16.5597 11.4724 16.5597 11.5402V18.3275V18.3309C16.5366 18.83 16.4372 19.5568 16.1911 19.9708C15.8178 20.5412 15.2966 20.7896 14.8227 20.7896C13.6428 20.7896 13.0834 20.0087 13.0834 18.6621V11.5667C13.0834 11.485 13.0187 11.4195 12.9378 11.4172H12.9389H12.932H7.49212C7.41238 11.4172 7.34766 11.4816 7.34766 11.5609V13.0617C7.34766 13.1456 7.41006 13.1801 7.44589 13.1858C7.60769 13.2111 7.90008 13.2192 8.09771 13.3031C8.73103 13.5504 8.98644 14.138 9.00146 14.613V18.8381C9.00146 22.0511 10.7974 23.9245 13.1839 23.9245C15.2145 23.9245 16.3251 23.0677 16.9446 22.1983C16.9862 22.1397 17.0209 22.1121 17.0613 22.1121C17.1087 22.1121 17.1237 22.1374 17.1549 22.1949C17.7351 23.2471 18.7475 23.9245 20.2083 23.9245C22.0193 23.9245 23.4477 22.9401 24.2336 21.3899C24.2475 21.3623 24.281 21.3531 24.296 21.3542C24.3168 21.3542 24.3365 21.3634 24.348 21.3807C25.3142 22.9113 26.9865 23.9256 29.6226 23.9256C33.1961 23.9256 35.0995 21.759 35.9778 20.1559C36.0241 20.08 36.0541 20.0444 36.1027 20.0524C36.1304 20.057 36.1627 20.0869 36.172 20.1674C36.343 22.2938 37.5253 23.9268 39.7836 23.9268C41.3345 23.9268 42.1793 23.3851 42.9039 22.6652C43.2934 22.2777 43.5546 21.8579 43.5592 21.8499C43.6563 21.6981 43.7488 21.5417 43.832 21.3772C43.8458 21.3485 43.8782 21.3347 43.9002 21.3358C43.9267 21.337 43.951 21.3508 43.9626 21.368C44.0296 21.475 44.0989 21.5808 44.1718 21.6831C45.213 23.1448 46.7432 23.9521 48.4791 23.9521C49.6925 23.9521 50.8621 23.5565 51.8572 22.809L52.0444 22.6687C52.138 22.5974 52.2755 22.6641 52.2755 22.7825V27.8574C52.2755 27.9276 52.3541 28.0035 52.4154 28.0035H57.861C57.935 28.0035 57.9939 27.9437 57.9939 27.8712V26.5729L57.9905 26.5695L57.9962 26.566ZM49.77 21.7326C48.3034 21.7326 47.2702 20.0076 47.2702 17.5075C47.2702 15.0074 48.419 13.0536 49.8855 13.0536C51.3521 13.0536 52.0883 15.0097 52.0883 17.5075C52.0883 20.0053 51.24 21.7314 49.77 21.7314V21.7326Z" fill="black"/>
<path d="M57.9964 26.566V26.3556C57.9964 26.2889 57.9594 26.2406 57.8924 26.2302C57.7537 26.2072 57.4821 26.1888 57.3388 26.1463C56.8153 25.991 56.4489 25.5322 56.3599 25.0342C56.3484 24.9629 56.3391 24.856 56.3391 24.8031V14.644C56.3542 14.1691 56.6142 13.5814 57.2475 13.3342C57.4451 13.2502 57.7375 13.2422 57.8993 13.2169C57.9352 13.2111 57.9976 13.1755 57.9976 13.0927V11.592C57.9976 11.5322 57.971 11.4482 57.86 11.4482H52.4283C52.4283 11.4482 52.4283 11.4482 52.4271 11.4482H52.4259C52.4259 11.4482 52.4213 11.4494 52.419 11.4494C52.3381 11.454 52.2792 11.5184 52.2792 11.6023V12.1635C52.2792 12.2808 52.1439 12.3487 52.048 12.2785L51.8608 12.1382C50.9397 11.3884 50.0672 10.9537 48.4827 10.9537C45.308 10.9537 42.9157 13.8379 42.9157 17.5098C42.9157 18.0641 42.9712 18.6035 43.0798 19.1233C43.111 19.2774 43.1029 19.4384 43.0428 19.5844C42.7631 20.2629 42.2789 20.7723 41.7045 20.7723C40.7406 20.7723 40.261 19.7995 40.261 18.1377L40.2541 11.5448C40.2541 11.4781 40.1998 11.4229 40.1316 11.4229H36.2681C36.2011 11.4229 36.1456 11.477 36.1456 11.5448V15.8009C36.1456 15.8009 36.1467 15.8814 36.1375 15.9389C36.1317 15.9723 36.1248 16.0091 36.1155 16.0413C34.7333 20.425 32.3318 20.7896 31.2177 20.7896C30.0319 20.7896 27.9655 20.2077 27.6269 17.005C27.2883 13.8022 28.9768 12.4556 29.7222 12.4556C31.413 12.4556 31.8013 15.035 31.8741 15.8159C31.8868 15.9205 31.9862 15.9608 32.0556 15.9608H33.469C33.5788 15.9608 33.6585 15.8929 33.6585 15.7791V12.2636C33.6585 12.2141 33.6377 12.1405 33.5776 12.098C33.4135 11.983 33.2621 11.8772 33.0206 11.738C32.4716 11.4206 31.554 10.9514 29.5569 10.9514C24.7793 10.9514 23.2549 14.2933 23.2549 16.9693C23.2549 17.7237 23.3242 18.4609 23.4745 19.1566C23.508 19.3142 23.5011 19.4786 23.4398 19.6281C23.1613 20.3031 22.6886 20.7551 22.1188 20.7873C21.0891 20.8448 20.7031 19.7144 20.6673 18.1343V11.5414C20.6673 11.4747 20.613 11.4195 20.5448 11.4195H16.6813C16.6142 11.4195 16.5588 11.4735 16.5588 11.5414V18.3286V18.3321C16.5357 18.8312 16.4363 19.558 16.1901 19.972C15.8168 20.5423 15.2956 20.7907 14.8218 20.7907C13.6418 20.7907 13.0824 20.0099 13.0824 18.6633V11.5678C13.0824 11.4862 13.0177 11.4206 12.9368 11.4183H12.938H12.931H7.49114C7.4114 11.4183 7.34668 11.4827 7.34668 11.5621V13.0628C7.34668 13.1467 7.40909 13.1812 7.44491 13.187C7.60671 13.2123 7.8991 13.2203 8.09673 13.3043C8.73005 13.5515 8.98546 14.1392 9.00049 14.6141V18.8392C9.00049 22.0523 10.7964 23.9256 13.183 23.9256C15.2135 23.9256 16.3242 23.0689 16.9436 22.1995C16.9852 22.1408 17.0199 22.1132 17.0603 22.1132C17.1077 22.1132 17.1228 22.1385 17.154 22.196C17.7341 23.2483 18.7465 23.9256 20.2073 23.9256C22.0183 23.9256 23.4467 22.9412 24.2326 21.391C24.2465 21.3634 24.28 21.3542 24.295 21.3554C24.3158 21.3554 24.3355 21.3646 24.347 21.3818C25.3132 22.9125 26.9855 23.9268 29.6217 23.9268C33.1951 23.9268 35.0985 21.7602 35.9769 20.1571C36.0231 20.0812 36.0531 20.0456 36.1017 20.0536C36.1294 20.0582 36.1618 20.0881 36.171 20.1686C36.3421 22.2949 37.5243 23.9279 39.7826 23.9279C41.3335 23.9279 42.1783 23.3863 42.903 22.6664C43.2924 22.2788 43.5536 21.8591 43.5582 21.851C43.6553 21.6992 43.7478 21.5428 43.831 21.3784C43.8449 21.3496 43.8772 21.3358 43.8992 21.337C43.9258 21.3381 43.95 21.3519 43.9616 21.3692C44.0286 21.4761 44.098 21.5819 44.1708 21.6843C45.2121 23.1459 46.7422 23.9532 48.4781 23.9532C49.6916 23.9532 50.8611 23.5576 51.8562 22.8101L52.0434 22.6698C52.137 22.5985 52.2745 22.6652 52.2745 22.7837V27.8586C52.2745 27.9287 52.3531 28.0046 52.4144 28.0046H57.86C57.934 28.0046 57.9929 27.9448 57.9929 27.8724V26.5741L57.9895 26.5706L57.9964 26.566ZM49.7701 21.7326C48.3036 21.7326 47.2704 20.0076 47.2704 17.5075C47.2704 15.0074 48.4191 13.0536 49.8857 13.0536C51.3523 13.0536 52.0885 15.0097 52.0885 17.5075C52.0885 20.0053 51.2402 21.7314 49.7701 21.7314V21.7326Z" fill="black"/>
<path d="M45.6032 8.58706L40.9145 10.2246C40.8209 10.258 40.7157 10.2269 40.6545 10.1476L38.3858 6.88507C38.2934 6.76547 38.1119 6.76547 38.0195 6.88507L35.7508 10.1487C35.6896 10.2269 35.5856 10.258 35.4908 10.2258L30.8021 8.58706C30.5837 8.51116 30.601 8.19836 30.8264 8.14661L34.6968 7.24617C34.8482 7.21052 34.9222 7.04147 34.8448 6.90807L32.8315 3.4236C32.716 3.22465 32.9344 2.9981 33.1389 3.10505L36.3449 4.77024C36.4743 4.83694 36.6326 4.77024 36.6742 4.63109L37.9825 0.166819C38.0472 -0.0539789 38.3616 -0.0539789 38.4263 0.166819L39.7345 4.63109C39.775 4.77024 39.9345 4.83809 40.0639 4.77024L43.2698 3.10505C43.4744 2.9981 43.6928 3.22465 43.5772 3.4236L41.564 6.90807C41.4866 7.04147 41.5605 7.21167 41.7119 7.24617L45.5824 8.14661C45.8077 8.19951 45.8239 8.51116 45.6066 8.58706H45.6032Z" fill="black"/>
</g>
<defs>
<clipPath id="clip0_59_5094">
<rect width="58" height="28" fill="white"/>
</clipPath>
</defs>
</svg>
