<svg width="398" height="120" viewBox="0 0 398 120" fill="none" xmlns="http://www.w3.org/2000/svg">
<path d="M190.626 27.2282L190.85 26.7665L190.268 25.9009C190.33 25.2404 190.265 25.0118 190.819 24.5014C195.299 20.3718 199.671 16.2749 203.429 11.4294L203.625 11.1738C204.306 11.5367 204.547 11.5423 205.319 11.5563C216.383 20.2968 222.603 36.6481 224.328 50.199C228.619 83.8917 210.262 121.261 172.074 119.823C152.569 119.09 137.938 107.419 129.949 89.8025C128.984 87.6219 127.972 85.1538 127.438 82.7943C128.754 83.2676 128.148 83.7164 129.705 84.081C135.25 82.4508 142.348 70.9656 146.512 71.6106L147.091 72.403L147.281 70.4853C150.092 83.9478 156.953 98.0273 172.535 99.0089C192.684 100.282 201.992 79.2324 202.419 62.0922C202.658 52.4616 200.782 42.6684 196.151 34.1078C194.927 31.8528 192.347 29.1084 190.626 27.2282Z" fill="black"/>
<path d="M127.438 82.7944C125.65 78.7556 124.47 70.0786 124.173 65.6016C122.959 47.328 127.358 29.147 139.554 15.213C155.834 -3.38876 186.922 -5.10102 205.32 11.5564C204.548 11.5423 204.306 11.5367 203.626 11.1739L203.43 11.4295C199.672 16.2749 195.3 20.3719 190.819 24.5014C190.266 25.0119 190.331 25.2404 190.269 25.9009L190.851 26.7665L190.627 27.2283C187.67 24.9298 184.335 22.5167 180.625 21.6336C153.616 15.206 143.913 46.9351 146.787 67.7192C146.922 68.6447 147.087 69.5668 147.282 70.4853L147.092 72.403L146.513 71.6107C142.348 70.9656 135.251 82.4508 129.706 84.081C128.149 83.7164 128.755 83.2677 127.438 82.7944Z" fill="black"/>
<path d="M354.62 0.359272C368.549 -1.60892 388.014 4.63606 396.922 15.9891C393.153 20.9548 389.23 26.3163 385.356 31.1617C380.399 26.9736 377.563 24.7993 371.245 22.2257C360.836 17.9878 340.46 16.5511 341.792 33.2744C342.416 41.1356 354.003 44.7746 360.089 47.1558C375.883 53.2893 393.837 58.6463 396.841 77.7848C397.136 79.5482 397.336 81.3292 397.441 83.1172C398.892 104.279 384.087 116.588 364.359 119.343C349.666 121.675 331.443 116.605 318.973 108.577C320.631 104.089 326.033 93.7329 328.284 89.2735L328.691 89.561C337.519 95.861 344.86 99.5211 355.921 100.166C366.67 100.794 378.057 95.251 375.129 82.6264C374.512 79.9584 372.809 77.0065 370.589 75.4113C359.599 67.5021 344.92 66.3452 333.655 58.7374C325.585 53.2928 322.426 47.8216 320.505 38.5552C317.704 15.8492 332.028 0.812229 354.62 0.359272Z" fill="black"/>
<path d="M81.1487 2.77474C88.4816 2.74319 95.8144 2.75405 103.147 2.80699C100.661 8.87458 98.0988 17.0099 95.9077 23.3324C87.575 45.8078 80.2379 68.8066 72.0296 91.3457C68.9543 99.7878 65.7538 108.647 63.109 117.222H42.2004C38.1094 105.078 32.9449 91.9382 28.4658 79.836L0 2.75195C7.57195 2.96336 16.1648 2.76737 23.816 2.76772C27.6143 13.4399 31.287 24.983 34.8991 35.7624C40.9747 53.6122 46.9105 71.5096 52.7067 89.4491C57.8263 71.0924 65.1038 52.5218 70.7465 34.2191C73.9529 23.8183 77.5906 13.0771 81.1487 2.77474Z" fill="black"/>
<path d="M261.798 2.76562L283.983 2.77264L283.979 19.5489L283.983 117.214L261.819 117.232L261.805 56.9206C261.801 47.1712 261.454 34.8008 261.871 25.1979C261.636 17.9253 261.787 10.0792 261.798 2.76562Z" fill="black"/>
</svg>
