<svg width="960" height="649" viewBox="0 0 960 649" fill="none" xmlns="http://www.w3.org/2000/svg">
<path d="M586.087 0H616.758C621.483 1.04787 626.836 1.0591 631.678 1.61268C676.842 6.77509 722.859 24.8478 748.889 64.1627C768.881 94.3608 772.842 133.482 766.102 168.559C756.314 216.183 723.159 254.292 683.311 280.412C650.367 302.006 613.917 313.619 577.636 328.524C561.694 335.073 545.536 340.116 529.8 347.516C491.916 365.333 460.449 392.126 451.238 434.826C420.214 434.19 387.772 434.636 356.66 434.634L186.656 434.639L131.425 434.648C122.673 434.651 113.132 434.903 104.452 434.675C106.061 443.213 106.571 451.275 108.551 460.119C116.137 494.011 133.246 521.375 161.519 541.552C211.303 577.087 299.315 568.635 334.86 515.749C338.513 510.241 341.65 504.404 344.228 498.315L418.418 498.287C429.28 498.287 444.94 497.794 455.547 498.39C479.541 562.742 560.681 577.125 619.036 555.513C675.652 534.548 715.603 481.349 739.706 428.169C759.244 384.341 768.511 338.612 772.083 291.131L876.131 291.114C869.381 358.082 848.714 422.902 815.461 481.419C821.841 487.415 828.717 495.202 834.703 501.695L863.283 532.636L960 637.281C952.463 637.848 942.544 637.557 934.833 637.553L893.517 637.543L845.006 637.548C837.291 637.548 826.955 637.848 819.394 637.44C814.153 632.926 801.173 618.009 795.783 612.074C781.627 596.491 766.383 580.627 752.578 564.842C696.295 620.081 628.247 649.151 548.864 648.766C491.977 648.49 432.594 630.483 391.987 588.971L391.433 588.399C385.07 595.398 377.003 601.849 369.337 607.432C333.413 633.596 292.329 646.099 248.276 648.34C123.492 654.683 27.676 582.366 4.78308 458.335C3.37042 451.027 2.30106 443.657 1.57852 436.248C1.18553 431.817 0.802645 422.198 0 418.409V385.445C0.53183 383.366 0.877941 377.086 1.09574 374.472C1.49565 369.139 2.10957 363.824 2.93603 358.54C6.96975 330.728 15.6651 303.796 28.6561 278.876C56.2523 227.04 100.732 189.425 157.095 172.507C214.515 155.27 280.881 158.92 334.098 187.566C373.666 208.865 404.621 243.225 423.974 283.609C427.303 290.556 431.683 300.403 433.875 307.68C451.07 295.818 473.841 285.866 493.467 278.896C487.528 272.685 481.936 264.889 476.545 258.113C433.588 204.116 405.159 129.112 448.134 66.1241C472.355 30.6209 512.7 11.9189 554.306 4.04783C559.959 2.94953 565.655 2.11404 571.383 1.54407C576.173 1.08659 581.433 0.945695 586.087 0ZM104.733 359.126L226.172 359.121L346.104 359.117C345.407 351.117 344.864 344.335 343.272 336.458C338.309 310.811 324.821 287.596 305 270.583C283.085 252.134 254.693 241.917 225.53 242.98C225.355 243 225.18 243.02 225.006 243.04C156.947 246.087 110.137 291.588 104.733 359.126ZM595.42 241.861C598.683 239.898 601.791 238.383 605.189 236.699C633.159 222.059 656.972 200.804 666.628 169.828C683.016 117.261 653.344 74.4458 597.023 78.4803C578.63 79.9907 557.892 85.8404 546 100.591C514.842 139.245 551.784 191.567 577.795 222.176C583.631 229.044 589.941 235.19 595.42 241.861Z" fill="currentColor"/>
</svg>
